<svg height="512" viewBox="0 0 64 64" width="512" xmlns="http://www.w3.org/2000/svg"><g id="Filled_outline" data-name="Filled outline"><path d="m33 36h22v25h-22z" fill="#cdeef6"/><g fill="#92cdde"><path d="m44 52 7-3v-13h-1z"/><path d="m44 52-7-3v-13h1z"/><path d="m55 36h2a4 4 0 0 1 4 4v21a0 0 0 0 1 0 0h-6a0 0 0 0 1 0 0v-25a0 0 0 0 1 0 0z"/></g><path d="m27 36v-9a2 2 0 0 0 -2-2h-8a2 2 0 0 0 -2 2 2 2 0 0 0 2 2h4v11a2 2 0 0 0 2 2h10v-6z" fill="#ffd782"/><path d="m38 36 6 16 6-16z" fill="#f4f4e6"/><path d="m43 52h2v9h-2z" fill="#92cdde"/><path d="m42 36-1 8 3 8 3-8-1-8z" fill="#195c85"/><path d="m27 31h-6v9a2 2 0 0 0 2 2h10v-6h-6z" fill="#92cdde"/><path d="m54 32h-20v-25a4.012 4.012 0 0 1 4-4h12a4 4 0 0 1 4 4z" fill="#ffd782"/><path d="m54 15a4 4 0 0 1 0 8z" fill="#f9bb4b"/><path d="m34 15h8v4h-8z" fill="#f4f4e6"/><path d="m46 15h8v4h-8z" fill="#f4f4e6"/><path d="m42 16h4v2h-4z" fill="#ad6327"/><path d="m34 11s10 2 13-2a7.914 7.914 0 0 0 7 2v-4a4 4 0 0 0 -4-4h-12a4.012 4.012 0 0 0 -4 4z" fill="#394d5c"/><path d="m30 9c0-3.4-2.026-6-5-6a5 5 0 0 0 -3 1 1.748 1.748 0 0 1 -2 0 5 5 0 0 0 -3-1c-2.974 0-5 2.6-5 6a8.455 8.455 0 0 0 1 4c2.938 5.759 2.134 10 4 10 1.154 0 2-1.308 2-4 0-3.077 1.231-3 2-3s2-.077 2 3c0 2.692.846 4 2 4 1.866 0 1.062-4.241 4-10a8.455 8.455 0 0 0 1-4z" fill="#e8e7d4"/><path d="m47 54h5v2h-5z"/><path d="m57 35h-29v-8a3 3 0 0 0 -3-3h-8a3 3 0 0 0 0 6h3v10a3 3 0 0 0 3 3h9v18a1 1 0 0 0 1 1h28a1 1 0 0 0 1-1v-21a5.006 5.006 0 0 0 -5-5zm-36-7h-4a1 1 0 0 1 0-2h8a1 1 0 0 1 1 1v3h-4v-1a1 1 0 0 0 -1-1zm11 13h-9a1 1 0 0 1 -1-1v-8h4v4a1 1 0 0 0 1 1h5zm16.557-4-1.068 2.848-.356-2.848zm1.443 1.848v9.493l-4.241 1.817zm-9.133-1.848-.356 2.848-1.068-2.848zm-2.867 1.848 4.241 11.31-4.241-1.817zm5 21.152h-9v-23h2v12a1 1 0 0 0 .606.919l6.394 2.74zm-.977-16.122.86-6.878h2.234l.86 6.878-1.977 5.274zm11.977 16.122h-9v-7.341l6.394-2.74a1 1 0 0 0 .606-.919v-12h2zm6 0h-4v-23h1a3 3 0 0 1 3 3z"/><path d="m34 33h20a1 1 0 0 0 1-1v-8.1a5 5 0 0 0 0-9.8v-7.1a5.006 5.006 0 0 0 -5-5h-12a5.006 5.006 0 0 0 -5 5v25a1 1 0 0 0 1 1zm21-16.829a3 3 0 0 1 0 5.658zm-2 1.829h-6v-2h6zm-18-11a3 3 0 0 1 3-3h12a3 3 0 0 1 3 3v3.163a7.007 7.007 0 0 1 -5.293-1.87.991.991 0 0 0 -.778-.293 1 1 0 0 0 -.729.4c-1.957 2.609-8.142 2.238-11.2 1.759zm0 5.178a31.02 31.02 0 0 0 4.3.318c2.746 0 5.88-.439 7.783-2.124a8.847 8.847 0 0 0 5.917 1.802v1.826h-7a1 1 0 0 0 -1 1v1h-2v-1a1 1 0 0 0 -1-1h-7zm0 3.822h6v2h-6zm0 4h7a1 1 0 0 0 1-1v-1h2v1a1 1 0 0 0 1 1h7v11h-18z"/><path d="m43 21h2v3h-2z"/><path d="m44 27a4 4 0 0 1 -4-4h-2a6 6 0 0 0 12 0h-2a4 4 0 0 1 -4 4z"/><path d="m20 19c0-1.421.285-1.815.372-1.9s.233-.1.57-.1h.116c.35 0 .481.009.57.1s.372.479.372 1.9c0 4.64 2.3 5 3 5 1.763 0 2.156-1.756 2.611-3.789a26.8 26.8 0 0 1 2.28-6.756 9.493 9.493 0 0 0 1.109-4.455c0-4.056-2.523-7-6-7a5.957 5.957 0 0 0 -3.607 1.206.76.76 0 0 1 -.786 0 5.957 5.957 0 0 0 -3.607-1.206c-3.477 0-6 2.944-6 7a9.493 9.493 0 0 0 1.109 4.455 26.8 26.8 0 0 1 2.28 6.756c.455 2.033.848 3.789 2.611 3.789.7 0 3-.36 3-5zm-2.97 3.02a7.465 7.465 0 0 1 -.689-2.246 28.638 28.638 0 0 0 -2.45-7.229 7.442 7.442 0 0 1 -.891-3.545c0-2.944 1.645-5 4-5a4.018 4.018 0 0 1 2.393.794 2.754 2.754 0 0 0 3.214 0 4.018 4.018 0 0 1 2.393-.794c2.355 0 4 2.056 4 5a7.442 7.442 0 0 1 -.891 3.545 28.638 28.638 0 0 0 -2.45 7.229 8.282 8.282 0 0 1 -.659 2.226c-.5 0-1-1.03-1-3a4.507 4.507 0 0 0 -.959-3.318 2.619 2.619 0 0 0 -1.988-.682h-.106a2.614 2.614 0 0 0 -1.988.682 4.507 4.507 0 0 0 -.959 3.318c0 1.97-.5 3-.97 3.02z"/><path d="m24.555 7.832-1.11-1.664a4.609 4.609 0 0 1 -4.894 0l-1.106 1.664a7.164 7.164 0 0 0 3.672 1.068 6.1 6.1 0 0 0 3.438-1.068z"/><path d="m8 17h2v2h-2z"/><path d="m8 21h2v2h-2z"/><path d="m6 19h2v2h-2z"/><path d="m10 19h2v2h-2z"/><path d="m4 8h2v2h-2z"/><path d="m4 12h2v2h-2z"/><path d="m2 10h2v2h-2z"/><path d="m6 10h2v2h-2z"/></g></svg>